<svg viewBox="0 0 512 512" xmlns="http://www.w3.org/2000/svg"><path d="m471.95 253.05c0 120.9-98.006 218.91-218.91 218.91s-218.91-98.006-218.91-218.91 98.006-218.91 218.91-218.91 218.91 98.006 218.91 218.91" fill="#ff5722" fill-rule="evenodd"/><path d="m133.88 115.05c-6.5 0-11.73 5.23-11.73 11.73v245.97c0 3.11 1.2 5.93 3.16 8.02l87.48 87.48c13.05 2.43 26.5 3.71 40.25 3.71 120.9 0 218.91-98.01 218.91-218.91 0-19.5-2.57-38.4-7.35-56.4l-78.18-78.18c-2.12-2.12-5.05-3.42-8.3-3.42z" fill-rule="evenodd" opacity=".25"/><path d="m133.88 115.06c-6.4968 0-11.719 5.2219-11.719 11.719v245.97c0 6.4968 5.2219 11.719 11.719 11.719h244.25c6.4968 0 11.719-5.2219 11.719-11.719v-245.97c0-6.4968-5.222-11.719-11.719-11.719zm122.03 22.75c23.063 0 41.812 19.455 41.812 43.656s-18.75 43.875-41.812 43.875c-23.063 0-41.812-19.674-41.812-43.875 0-24.202 18.75-43.656 41.812-43.656zm-39 98.719c10.898 8.5072 24.402 13.562 39 13.562s28.102-5.0553 39-13.562c16.885 4.1859 30.978 25.698 30.375 52.062h-138.56c-.63792-26.359 13.339-47.864 30.188-52.062zm-26.219 82.344h10.625l-2.1875 20.875 20.906-5.9062 1.4688 10.031-19.938 1.5938 12.906 17.188-9.3438 5.0938-9.25-19-8.375 19-9.6562-5.0938 12.75-17.188-19.781-1.5938 1.5312-10.031 20.625 5.9062-2.2812-20.875zm59.844 0h10.625l-2.16 20.88 20.875-5.9062 1.5 10.031-19.969 1.5938 12.906 17.188-9.3438 5.0938-9.2188-19-8.4062 19-9.6562-5.0938 12.75-17.188-19.812-1.5938 1.5625-10.031 20.656 5.9062-2.3125-20.875zm59.844 0h10.625l-2.1875 20.875 20.906-5.9062 1.4688 10.031-19.938 1.5938 12.906 17.188-9.3438 5.0938-9.2188-19-8.4062 19-9.6562-5.0938 12.75-17.188-19.78-1.57 1.5-10.04 20.66 5.91-2.28-20.87z" fill="#fff" fill-rule="evenodd"/><path d="m256 1c-140.83 0-255 114.17-255 255s114.17 255 255 255 255-114.17 255-255-114.17-255-255-255m8.827 44.931c120.9 0 218.9 98 218.9 218.9s-98 218.9-218.9 218.9-218.93-98-218.93-218.9 98.03-218.9 218.93-218.9" fill-opacity=".067" fill-rule="evenodd"/><path d="m256 4.43c-138.94 0-251.57 112.63-251.57 251.57s112.63 251.57 251.57 251.57 251.57-112.63 251.57-251.57-112.63-251.57-251.57-251.57m5.885 38.556c120.9 0 218.9 98 218.9 218.9s-98 218.9-218.9 218.9-218.93-98-218.93-218.9 98.03-218.9 218.93-218.9" fill-opacity=".129" fill-rule="evenodd"/><path d="m256 8.36c-136.77 0-247.64 110.87-247.64 247.64s110.87 247.64 247.64 247.64 247.64-110.87 247.64-247.64-110.87-247.64-247.64-247.64m2.942 31.691c120.9 0 218.9 98 218.9 218.9s-98 218.9-218.9 218.9-218.93-98-218.93-218.9 98.03-218.9 218.93-218.9" fill-opacity=".129" fill-rule="evenodd"/><path d="m253.04 7.86c-135.42 0-245.19 109.78-245.19 245.19 0 135.42 109.78 245.19 245.19 245.19 135.42 0 245.19-109.78 245.19-245.19 0-135.42-109.78-245.19-245.19-245.19zm0 26.297c120.9 0 218.9 98 218.9 218.9s-98 218.9-218.9 218.9-218.93-98-218.93-218.9 98.03-218.9 218.93-218.9z" fill="#fff" fill-rule="evenodd" stroke="#000" stroke-opacity=".31" stroke-width="4.904"/><text x="729.64001" y="231.35997"><tspan x="729.64001" y="231.35997"/></text><text transform="scale(4.0128 .2492)" x="378.90805" y="579.25812"/><text x="1310.91" y="151.35997"><tspan x="1310.91" y="151.35997"/></text><text transform="scale(4.0128 .2492)" x="523.75732" y="258.21997"/><text x="239.33" y="-29.900009"><tspan x="239.33" y="-29.900009"/></text><text transform="scale(4.0128 .2492)" x="256.71869" y="-469.1264"/><text x="1337.38" y="-246.37001"><tspan x="1337.38" y="-246.37001"/></text><text transform="scale(4.0128 .2492)" x="530.3573" y="-1337.802"/><text x="1918.65" y="-326.37"><tspan x="1918.65" y="-326.37"/></text><text transform="scale(4.0128 .2492)" x="675.20654" y="-1658.8303"/><text x="1529.53" y="-798.77002"><tspan x="1529.53" y="-798.77002"/></text><text transform="scale(4.0128 .2492)" x="578.237" y="-3554.4807"/><text x="2110.79" y="-878.78003"><tspan x="2110.79" y="-878.78003"/></text><text transform="scale(4.0128 .2492)" x="723.0863" y="-3875.519"/><text x="277.98999" y="535.94006"><tspan x="277.98999" y="535.94006"/></text><text x="160.69133" y="185.14975"><tspan x="160.69133" y="185.14975"/></text><text transform="scale(4.0128 .2492)" x="237.12532" y="393.8136"/><text x="741.96136" y="105.14975"><tspan x="741.96136" y="105.14975"/></text><text transform="scale(4.0128 .2492)" x="381.97458" y="72.785248"/><text x="-329.61868" y="-76.111244"><tspan x="-329.61868" y="-76.111244"/></text><text transform="scale(4.0128 .2492)" x="114.93594" y="-654.57104"/><text x="768.43134" y="-292.58023"><tspan x="768.43134" y="-292.58023"/></text><text transform="scale(4.0128 .2492)" x="388.57452" y="-1523.2367"/><text x="1349.7013" y="-372.59024"><tspan x="1349.7013" y="-372.59024"/></text><text transform="scale(4.0128 .2492)" x="533.42383" y="-1844.2749"/><text x="960.58136" y="-844.9903"><tspan x="960.58136" y="-844.9903"/></text><text transform="scale(4.0128 .2492)" x="436.45428" y="-3739.9253"/><text x="1541.8413" y="-924.9903"><tspan x="1541.8413" y="-924.9903"/></text><text transform="scale(4.0128 .2492)" x="581.30359" y="-4060.9536"/><g transform="translate(-568.95 -46.21)"><text x="277.98999" y="535.94"><tspan x="277.98999" y="535.94"/></text><text x="-860.84003" y="11.553"><tspan x="-860.84003" y="11.553"/></text><text x="-3219.6699" y="289.67001"><tspan x="-3219.6699" y="289.67001"/></text><text x="-2931.46" y="62.380001"><tspan x="-2931.46" y="62.380001"/></text><text x="1263.14" y="-194.52"><tspan x="1263.14" y="-194.52"/></text><text x="-864.78998" y="-49.48"><tspan x="-864.78998" y="-49.48"/></text><text x="-3223.6201" y="228.64"><tspan x="-3223.6201" y="228.64"/></text><text x="-2935.4099" y="1.35"><tspan x="-2935.4099" y="1.35"/></text></g><text x="-482.51389" y="460.57086"><tspan x="-482.51389" y="460.57086"/></text><text transform="scale(4.0128 .2492)" x="197.48387" y="1285.3057"/><text x="1407.6061" y="142.41081"><tspan x="1407.6061" y="142.41081"/></text><text transform="scale(4.0128 .2492)" x="547.85809" y="222.32114"/><text x="1988.8761" y="62.410816"><tspan x="1988.8761" y="62.410816"/></text><text transform="scale(4.0128 .2492)" x="692.70734" y="-98.71701"/><text x="917.29608" y="-118.84916"><tspan x="917.29608" y="-118.84916"/></text><text transform="scale(4.0128 .2492)" x="425.6687" y="-826.06335"/><text x="2015.3461" y="-335.31915"><tspan x="2015.3461" y="-335.31915"/></text><text transform="scale(4.0128 .2492)" x="699.30731" y="-1694.739"/><text x="2596.6162" y="-415.31915"><tspan x="2596.6162" y="-415.31915"/></text><text transform="scale(4.0128 .2492)" x="844.15656" y="-2015.7673"/><text x="2207.4961" y="-887.71918"><tspan x="2207.4961" y="-887.71918"/></text><text transform="scale(4.0128 .2492)" x="747.18701" y="-3911.4177"/><text x="2788.7561" y="-967.72919"><tspan x="2788.7561" y="-967.72919"/></text><text transform="scale(4.0128 .2492)" x="892.03632" y="-4232.4561"/><text x="955.95612" y="446.99091"><tspan x="955.95612" y="446.99091"/></text><g fill="#fff"><text x="-246.65335" y="-19.6402"><tspan fill="#fff" x="-246.65335" y="-19.6402"/></text><text x="-2275.2473" y="219.543"><tspan fill="#fff" x="-2275.2473" y="219.543"/></text><text x="-2027.3867" y="24.082167"><tspan fill="#fff" x="-2027.3867" y="24.082167"/></text><text x="1579.9695" y="-196.85182"><tspan fill="#fff" x="1579.9695" y="-196.85182"/></text><text x="-250.05038" y="-72.12603"><tspan fill="#fff" x="-250.05038" y="-72.12603"/></text><text x="-2278.6443" y="167.05716"><tspan fill="#fff" x="-2278.6443" y="167.05716"/></text><text x="-2030.7749" y="-28.412214"><tspan fill="#fff" x="-2030.7749" y="-28.412214"/></text><text x="-262.75925" y="-25.464117"><tspan fill="#fff" x="-262.75925" y="-25.464117"/></text><text x="-2361.1772" y="221.95178"><tspan fill="#fff" x="-2361.1772" y="221.95178"/></text><text x="-2104.7854" y="19.763182"><tspan fill="#fff" x="-2104.7854" y="19.763182"/></text><text x="1626.736" y="-208.77536"><tspan fill="#fff" x="1626.736" y="-208.77536"/></text><text x="-266.27316" y="-79.7565"><tspan fill="#fff" x="-266.27316" y="-79.7565"/></text><text x="-2364.6912" y="167.65939"><tspan fill="#fff" x="-2364.6912" y="167.65939"/></text><text x="-2108.2903" y="-34.538063"><tspan fill="#fff" x="-2108.2903" y="-34.538063"/></text><text opacity=".408" x="-246.65335" y="-19.6402"><tspan fill="#fff" x="-246.65335" y="-19.6402"/></text><text opacity=".408" x="-2275.2473" y="219.543"><tspan fill="#fff" x="-2275.2473" y="219.543"/></text><text opacity=".408" x="-2027.3867" y="24.082167"><tspan fill="#fff" x="-2027.3867" y="24.082167"/></text><text opacity=".408" x="1579.9695" y="-196.85182"><tspan fill="#fff" x="1579.9695" y="-196.85182"/></text><text opacity=".408" x="-250.05038" y="-72.12603"><tspan fill="#fff" x="-250.05038" y="-72.12603"/></text><text opacity=".408" x="-2278.6443" y="167.05716"><tspan fill="#fff" x="-2278.6443" y="167.05716"/></text><text opacity=".408" x="-2030.7749" y="-28.412214"><tspan fill="#fff" x="-2030.7749" y="-28.412214"/></text><text opacity=".408" x="-262.75925" y="-25.464117"><tspan fill="#fff" x="-262.75925" y="-25.464117"/></text><text opacity=".408" x="-2361.1772" y="221.95178"><tspan fill="#fff" x="-2361.1772" y="221.95178"/></text><text opacity=".408" x="-2104.7854" y="19.763182"><tspan fill="#fff" x="-2104.7854" y="19.763182"/></text><text opacity=".408" x="1626.736" y="-208.77536"><tspan fill="#fff" x="1626.736" y="-208.77536"/></text><text opacity=".408" x="-266.27316" y="-79.7565"><tspan fill="#fff" x="-266.27316" y="-79.7565"/></text><text opacity=".408" x="-2364.6912" y="167.65939"><tspan fill="#fff" x="-2364.6912" y="167.65939"/></text><text opacity=".408" x="-2108.2903" y="-34.538063"><tspan fill="#fff" x="-2108.2903" y="-34.538063"/></text></g><text x="1333.8435" y="79.495598"><tspan x="1333.8435" y="79.495598"/></text><text transform="scale(4.0128 .2492)" x="529.47632" y="-30.15756"/><text x="1915.1134" y="-.504404"><tspan x="1915.1134" y="-.504404"/></text><text transform="scale(4.0128 .2492)" x="674.32562" y="-351.18591"/><text x="843.53339" y="-181.76541"><tspan x="843.53339" y="-181.76541"/></text><text transform="scale(4.0128 .2492)" x="407.28696" y="-1078.5422"/><text x="1941.5834" y="-398.23441"><tspan x="1941.5834" y="-398.23441"/></text><text transform="scale(4.0128 .2492)" x="680.92554" y="-1947.2079"/><text x="2522.8533" y="-478.24442"><tspan x="2522.8533" y="-478.24442"/></text><text transform="scale(4.0128 .2492)" x="825.77484" y="-2268.2461"/><text x="2133.7334" y="-950.64441"><tspan x="2133.7334" y="-950.64441"/></text><text transform="scale(4.0128 .2492)" x="728.8053" y="-4163.8965"/><text x="2714.9934" y="-1030.6444"><tspan x="2714.9934" y="-1030.6444"/></text><text transform="scale(4.0128 .2492)" x="873.6546" y="-4484.9248"/><text x="882.19336" y="384.07559"><tspan x="882.19336" y="384.07559"/></text><text x="1511.7418" y="144.26393"><tspan x="1511.7418" y="144.26393"/></text><text transform="scale(4.0128 .2492)" x="573.80884" y="229.75626"/><text x="2093.0117" y="64.263954"><tspan x="2093.0117" y="64.263954"/></text><text transform="scale(4.0128 .2492)" x="718.65808" y="-91.282104"/><text x="1021.4317" y="-116.99605"><tspan x="1021.4317" y="-116.99605"/></text><text transform="scale(4.0128 .2492)" x="451.61942" y="-818.62836"/><text x="2119.4817" y="-333.46603"><tspan x="2119.4817" y="-333.46603"/></text><text transform="scale(4.0128 .2492)" x="725.258" y="-1687.2941"/><text x="2700.7517" y="-413.46603"><tspan x="2700.7517" y="-413.46603"/></text><text transform="scale(4.0128 .2492)" x="870.1073" y="-2008.3223"/><text x="2311.6316" y="-885.86609"><tspan x="2311.6316" y="-885.86609"/></text><text transform="scale(4.0128 .2492)" x="773.13776" y="-3903.9626"/><text x="2892.8916" y="-965.8761"><tspan x="2892.8916" y="-965.8761"/></text><text transform="scale(4.0128 .2492)" x="917.98706" y="-4225.001"/><text x="1060.0918" y="448.84393"><tspan x="1060.0918" y="448.84393"/></text><text x="1333.8435" y="80.475929"><tspan x="1333.8435" y="80.475929"/></text><text transform="scale(4.0128 .2492)" x="529.47632" y="-26.213621"/><text x="1915.1134" y=".475935"><tspan x="1915.1134" y=".475935"/></text><text transform="scale(4.0128 .2492)" x="674.32562" y="-347.25198"/><text x="843.53339" y="-180.78407"><tspan x="843.53339" y="-180.78407"/></text><text transform="scale(4.0128 .2492)" x="407.28696" y="-1074.5983"/><text x="1941.5834" y="-397.25406"><tspan x="1941.5834" y="-397.25406"/></text><text transform="scale(4.0128 .2492)" x="680.92554" y="-1943.2639"/><text x="2522.8533" y="-477.25406"><tspan x="2522.8533" y="-477.25406"/></text><text transform="scale(4.0128 .2492)" x="825.77484" y="-2264.292"/><text x="2133.7334" y="-949.65405"><tspan x="2133.7334" y="-949.65405"/></text><text transform="scale(4.0128 .2492)" x="728.8053" y="-4159.9321"/><text x="2714.9934" y="-1029.6641"><tspan x="2714.9934" y="-1029.6641"/></text><text transform="scale(4.0128 .2492)" x="873.6546" y="-4480.9712"/><text x="882.19336" y="385.05594"><tspan x="882.19336" y="385.05594"/></text><text x="45.16544" y="85.715935"><tspan x="45.16544" y="85.715935"/></text><text transform="scale(4.0128 .2492)" x="208.33612" y="-5.18646"/><text x="626.43542" y="5.715941"><tspan x="626.43542" y="5.715941"/></text><text transform="scale(4.0128 .2492)" x="353.18539" y="-326.22482"/><text x="-445.14462" y="-175.54407"><tspan x="-445.14462" y="-175.54407"/></text><text transform="scale(4.0128 .2492)" x="86.146744" y="-1053.571"/><text x="652.9054" y="-392.01407"><tspan x="652.9054" y="-392.01407"/></text><text transform="scale(4.0128 .2492)" x="359.78534" y="-1922.2367"/><text x="1234.1755" y="-472.01407"><tspan x="1234.1755" y="-472.01407"/></text><text transform="scale(4.0128 .2492)" x="504.63461" y="-2243.2649"/><text x="845.05542" y="-944.41406"><tspan x="845.05542" y="-944.41406"/></text><text transform="scale(4.0128 .2492)" x="407.6651" y="-4138.9053"/><text x="1426.3156" y="-1024.4241"><tspan x="1426.3156" y="-1024.4241"/></text><text transform="scale(4.0128 .2492)" x="552.5144" y="-4459.9438"/><text x="-406.48459" y="390.29596"><tspan x="-406.48459" y="390.29596"/></text><text x="1396.7413" y="69.15905"><tspan x="1396.7413" y="69.15905"/></text><text transform="scale(4.0128 .2492)" x="545.15057" y="-71.636292"/><text x="1978.0112" y="-10.840952"><tspan x="1978.0112" y="-10.840952"/></text><text transform="scale(4.0128 .2492)" x="689.99982" y="-392.66464"/><text x="906.43127" y="-192.10196"><tspan x="906.43127" y="-192.10196"/></text><text transform="scale(4.0128 .2492)" x="422.96118" y="-1120.0209"/><text x="2004.4812" y="-408.57095"><tspan x="2004.4812" y="-408.57095"/></text><text transform="scale(4.0128 .2492)" x="696.59979" y="-1988.6865"/><text x="2585.7512" y="-488.58096"><tspan x="2585.7512" y="-488.58096"/></text><text transform="scale(4.0128 .2492)" x="841.4491" y="-2309.7249"/><text x="2196.6313" y="-960.98096"><tspan x="2196.6313" y="-960.98096"/></text><text transform="scale(4.0128 .2492)" x="744.47955" y="-4205.375"/><text x="2777.8914" y="-1040.981"><tspan x="2777.8914" y="-1040.981"/></text><text transform="scale(4.0128 .2492)" x="889.32886" y="-4526.4038"/><text x="945.09125" y="373.73904"><tspan x="945.09125" y="373.73904"/></text><text x="1535.6062" y="-22.470499"><tspan x="1535.6062" y="-22.470499"/></text><text transform="scale(4.0128 .2492)" x="579.75586" y="-439.31921"/><text x="2116.876" y="-102.4705"><tspan x="2116.876" y="-102.4705"/></text><text transform="scale(4.0128 .2492)" x="724.6051" y="-760.35754"/><text x="1045.2961" y="-283.7305"><tspan x="1045.2961" y="-283.7305"/></text><text transform="scale(4.0128 .2492)" x="457.56647" y="-1487.704"/><text x="2143.3459" y="-500.2005"><tspan x="2143.3459" y="-500.2005"/></text><text transform="scale(4.0128 .2492)" x="731.20508" y="-2356.3694"/><text x="2724.616" y="-580.2005"><tspan x="2724.616" y="-580.2005"/></text><text transform="scale(4.0128 .2492)" x="876.05438" y="-2677.3977"/><text x="2335.4961" y="-1052.6005"><tspan x="2335.4961" y="-1052.6005"/></text><text transform="scale(4.0128 .2492)" x="779.08484" y="-4573.0381"/><text x="2916.7561" y="-1132.6105"><tspan x="2916.7561" y="-1132.6105"/></text><text transform="scale(4.0128 .2492)" x="923.93414" y="-4894.0767"/><text x="1083.9562" y="282.1095"><tspan x="1083.9562" y="282.1095"/></text><text x="1455.335" y="19.603956"><tspan x="1455.335" y="19.603956"/></text><text transform="scale(4.0128 .2492)" x="559.7522" y="-270.49197"/><text x="2036.605" y="-60.396049"><tspan x="2036.605" y="-60.396049"/></text><text transform="scale(4.0128 .2492)" x="704.60144" y="-591.52032"/><text x="965.0249" y="-241.65706"><tspan x="965.0249" y="-241.65706"/></text><text transform="scale(4.0128 .2492)" x="437.56277" y="-1318.8766"/><text x="2063.075" y="-458.12604"><tspan x="2063.075" y="-458.12604"/></text><text transform="scale(4.0128 .2492)" x="711.20135" y="-2187.5422"/><text x="2644.345" y="-538.13605"><tspan x="2644.345" y="-538.13605"/></text><text transform="scale(4.0128 .2492)" x="856.05066" y="-2508.5806"/><text x="2255.2249" y="-1010.5361"><tspan x="2255.2249" y="-1010.5361"/></text><text transform="scale(4.0128 .2492)" x="759.08112" y="-4404.231"/><text x="2836.4849" y="-1090.536"><tspan x="2836.4849" y="-1090.536"/></text><text transform="scale(4.0128 .2492)" x="903.93042" y="-4725.2593"/><text x="1003.6849" y="324.18396"><tspan x="1003.6849" y="324.18396"/></text><text x="1474.9785" y="67.624947"><tspan x="1474.9785" y="67.624947"/></text><text transform="scale(4.0128 .2492)" x="564.6474" y="-77.781128"/><text x="2056.2485" y="-12.37504"><tspan x="2056.2485" y="-12.37504"/></text><text transform="scale(4.0128 .2492)" x="709.49664" y="-398.81927"/><text x="984.66846" y="-193.63503"><tspan x="984.66846" y="-193.63503"/></text><text transform="scale(4.0128 .2492)" x="442.45798" y="-1126.1656"/><text x="2082.7185" y="-410.10501"><tspan x="2082.7185" y="-410.10501"/></text><text transform="scale(4.0128 .2492)" x="716.09656" y="-1994.8412"/><text x="2663.9885" y="-490.10501"><tspan x="2663.9885" y="-490.10501"/></text><text transform="scale(4.0128 .2492)" x="860.94586" y="-2315.8696"/><text x="2274.8684" y="-962.505"><tspan x="2274.8684" y="-962.505"/></text><text transform="scale(4.0128 .2492)" x="763.97632" y="-4211.5195"/><text x="2856.1284" y="-1042.515"><tspan x="2856.1284" y="-1042.515"/></text><text transform="scale(4.0128 .2492)" x="908.82562" y="-4532.5586"/><text x="1023.3284" y="372.20505"><tspan x="1023.3284" y="372.20505"/></text><text x="1424.3545" y="43.693913"><tspan x="1424.3545" y="43.693913"/></text><text transform="scale(4.0128 .2492)" x="552.0318" y="-173.81204"/><text x="2005.6244" y="-36.306076"><tspan x="2005.6244" y="-36.306076"/></text><text transform="scale(4.0128 .2492)" x="696.88104" y="-494.85019"/><text x="934.04437" y="-217.56606"><tspan x="934.04437" y="-217.56606"/></text><text transform="scale(4.0128 .2492)" x="429.84238" y="-1222.1965"/><text x="2032.0942" y="-434.03604"><tspan x="2032.0942" y="-434.03604"/></text><text transform="scale(4.0128 .2492)" x="703.48102" y="-2090.8721"/><text x="2613.3643" y="-514.03601"><tspan x="2613.3643" y="-514.03601"/></text><text transform="scale(4.0128 .2492)" x="848.33026" y="-2411.9006"/><text x="2224.2444" y="-986.43604"><tspan x="2224.2444" y="-986.43604"/></text><text transform="scale(4.0128 .2492)" x="751.36072" y="-4307.5508"/><text x="2805.5044" y="-1066.446"><tspan x="2805.5044" y="-1066.446"/></text><text transform="scale(4.0128 .2492)" x="896.21002" y="-4628.5894"/><text x="972.70441" y="348.27402"><tspan x="972.70441" y="348.27402"/></text><text x="1428.4225" y="-175.94063"><tspan x="1428.4225" y="-175.94063"/></text><text transform="scale(4.0128 .2492)" x="553.04553" y="-1055.1661"/><text x="2009.6924" y="-255.94063"><tspan x="2009.6924" y="-255.94063"/></text><text transform="scale(4.0128 .2492)" x="697.89484" y="-1376.2042"/><text x="938.11243" y="-437.20059"><tspan x="938.11243" y="-437.20059"/></text><text transform="scale(4.0128 .2492)" x="430.85614" y="-2103.5505"/><text x="2036.1624" y="-653.67059"><tspan x="2036.1624" y="-653.67059"/></text><text transform="scale(4.0128 .2492)" x="704.49475" y="-2972.2261"/><text x="2617.4324" y="-733.67059"><tspan x="2617.4324" y="-733.67059"/></text><text transform="scale(4.0128 .2492)" x="849.34406" y="-3293.2546"/><text x="2228.3125" y="-1206.0706"><tspan x="2228.3125" y="-1206.0706"/></text><text transform="scale(4.0128 .2492)" x="752.37451" y="-5188.9048"/><text x="2809.5725" y="-1286.0806"><tspan x="2809.5725" y="-1286.0806"/></text><text transform="scale(4.0128 .2492)" x="897.22382" y="-5509.9434"/><g transform="translate(698.78 -947.66)"><text x="277.98999" y="1076.3"><tspan x="277.98999" y="1076.3"/></text><text x="-1666.79" y="907.01001"><tspan x="-1666.79" y="907.01001"/></text></g><text transform="scale(4.0128 .2492)" x="76.497971" y="-726.00757"/><text x="1370.7249" y="94.984932"><tspan x="1370.7249" y="94.984932"/></text><text transform="scale(4.0128 .2492)" x="538.66724" y="32.008396"/><text x="1951.9948" y="14.984938"><tspan x="1951.9948" y="14.984938"/></text><text transform="scale(4.0128 .2492)" x="683.51648" y="-289.02997"/><text x="880.41473" y="-166.27507"><tspan x="880.41473" y="-166.27507"/></text><text transform="scale(4.0128 .2492)" x="416.47784" y="-1016.3763"/><text x="1978.4647" y="-382.74506"><tspan x="1978.4647" y="-382.74506"/></text><text transform="scale(4.0128 .2492)" x="690.11639" y="-1885.0419"/><text x="2559.7346" y="-462.74506"><tspan x="2559.7346" y="-462.74506"/></text><text transform="scale(4.0128 .2492)" x="834.9657" y="-2206.0701"/><text x="2170.6147" y="-935.14508"><tspan x="2170.6147" y="-935.14508"/></text><text transform="scale(4.0128 .2492)" x="737.99615" y="-4101.7104"/><text x="2751.8748" y="-1015.1551"><tspan x="2751.8748" y="-1015.1551"/></text><text transform="scale(4.0128 .2492)" x="882.84546" y="-4422.7485"/><text x="919.07471" y="399.56494"><tspan x="919.07471" y="399.56494"/></text><text x="-484.68332" y="424.88397"><tspan x="-484.68332" y="424.88397"/></text><text transform="scale(4.0128 .2492)" x="196.94324" y="1142.1005"/><text x="1405.4366" y="106.7239"><tspan x="1405.4366" y="106.7239"/></text><text transform="scale(4.0128 .2492)" x="547.31744" y="79.115936"/><text x="1986.7065" y="26.723906"><tspan x="1986.7065" y="26.723906"/></text><text transform="scale(4.0128 .2492)" x="692.16675" y="-241.92218"/><text x="915.12659" y="-154.53607"><tspan x="915.12659" y="-154.53607"/></text><text transform="scale(4.0128 .2492)" x="425.12805" y="-969.26862"/><text x="2013.1765" y="-371.00607"><tspan x="2013.1765" y="-371.00607"/></text><text transform="scale(4.0128 .2492)" x="698.76666" y="-1837.9441"/><text x="2594.4465" y="-451.00604"><tspan x="2594.4465" y="-451.00604"/></text><text transform="scale(4.0128 .2492)" x="843.61597" y="-2158.9724"/><text x="2205.3267" y="-923.40607"><tspan x="2205.3267" y="-923.40607"/></text><text transform="scale(4.0128 .2492)" x="746.64642" y="-4054.6228"/><text x="2786.5867" y="-1003.4161"><tspan x="2786.5867" y="-1003.4161"/></text><text transform="scale(4.0128 .2492)" x="891.49573" y="-4375.6611"/><text x="953.78662" y="411.30402"><tspan x="953.78662" y="411.30402"/></text><g transform="translate(-78.102 600.95)"><text x="-1672.58" y="383.17001"><tspan x="-1672.58" y="383.17001"/></text><text x="1476.0699" y="80.120003"><tspan x="1476.0699" y="80.120003"/></text></g><text x="651.53833" y="832.30914"><tspan x="651.53833" y="832.30914"/></text><text transform="scale(4.0128 .2492)" x="359.44501" y="2990.748"/><text x="1232.8083" y="752.30914"><tspan x="1232.8083" y="752.30914"/></text><text transform="scale(4.0128 .2492)" x="504.29428" y="2669.7197"/><text x="161.2283" y="571.04816"><tspan x="161.2283" y="571.04816"/></text><text transform="scale(4.0128 .2492)" x="237.25565" y="1942.3635"/><text x="1259.2783" y="354.57916"><tspan x="1259.2783" y="354.57916"/></text><text transform="scale(4.0128 .2492)" x="510.89423" y="1073.6979"/><text x="1840.5483" y="274.56915"><tspan x="1840.5483" y="274.56915"/></text><text transform="scale(4.0128 .2492)" x="655.74353" y="752.65961"/><text x="1451.4283" y="-197.83089"><tspan x="1451.4283" y="-197.83089"/></text><text transform="scale(4.0128 .2492)" x="558.77399" y="-1142.9907"/><text x="2032.6884" y="-277.83087"><tspan x="2032.6884" y="-277.83087"/></text><text transform="scale(4.0128 .2492)" x="703.62329" y="-1464.019"/><text x="208.42372" y="1154.9382"><tspan x="208.42372" y="1154.9382"/></text></svg>